<svg width="28" height="28" viewBox="0 0 28 28" fill="none" xmlns="http://www.w3.org/2000/svg">
<path fill-rule="evenodd" clip-rule="evenodd" d="M18.4443 3.11066H3.99984C3.38873 3.11066 2.88873 3.61066 2.88873 4.22177V19.7773L7.33318 15.3329H18.4443C19.0554 15.3329 19.5554 14.8329 19.5554 14.2218V4.22177C19.5554 3.61066 19.0554 3.11066 18.4443 3.11066ZM17.3332 5.3328V13.1106H6.41097L5.75541 13.7661L5.11097 14.4106V5.3328H17.3332ZM21.7776 7.55512H23.9998C24.611 7.55512 25.111 8.05512 25.111 8.66623V25.3329L20.6665 20.8885H8.44429C7.83317 20.8885 7.33317 20.3885 7.33317 19.7773V17.5551H21.7776V7.55512Z" fill="#8885FF"/>
</svg>
