<svg width="32" height="31" viewBox="0 0 32 31" fill="none" xmlns="http://www.w3.org/2000/svg">
<path fill-rule="evenodd" clip-rule="evenodd" d="M21.0371 2.92615H4.66671C3.97411 2.92615 3.40745 3.49281 3.40745 4.18541V21.815L8.44448 16.778H21.0371C21.7297 16.778 22.2963 16.2113 22.2963 15.5187V4.18541C22.2963 3.49281 21.7297 2.92615 21.0371 2.92615ZM19.7778 5.44458V14.2594H7.39931L6.65635 15.0024L5.92598 15.7327V5.44458H19.7778ZM24.8149 7.96321H27.3334C28.026 7.96321 28.5926 8.52987 28.5926 9.22247V28.1114L23.5556 23.0743H9.70374C9.01115 23.0743 8.44448 22.5077 8.44448 21.8151V19.2965H24.8149V7.96321Z" fill="white"/>
</svg>
