<svg width="16" height="16" viewBox="0 0 16 16" fill="none" xmlns="http://www.w3.org/2000/svg">
<g id="more_horiz_24px">
<path id="icon/navigation/more_horiz_24px" fill-rule="evenodd" clip-rule="evenodd" d="M4.00008 6.66666C3.26675 6.66666 2.66675 7.26666 2.66675 8C2.66675 8.73333 3.26675 9.33333 4.00008 9.33333C4.73341 9.33333 5.33342 8.73333 5.33342 8C5.33342 7.26666 4.73341 6.66666 4.00008 6.66666ZM12.0001 6.66666C11.2667 6.66666 10.6667 7.26666 10.6667 8C10.6667 8.73333 11.2667 9.33333 12.0001 9.33333C12.7334 9.33333 13.3334 8.73333 13.3334 8C13.3334 7.26666 12.7334 6.66666 12.0001 6.66666ZM6.66675 8C6.66675 7.26666 7.26675 6.66666 8.00008 6.66666C8.73341 6.66666 9.33341 7.26666 9.33341 8C9.33341 8.73333 8.73341 9.33333 8.00008 9.33333C7.26675 9.33333 6.66675 8.73333 6.66675 8Z" fill="#4F4F4F"/>
</g>
</svg>
