<svg width="28" height="28" viewBox="0 0 28 28" fill="none" xmlns="http://www.w3.org/2000/svg">
<path fill-rule="evenodd" clip-rule="evenodd" d="M4.11117 4.66669H24.1112C25.3334 4.66669 26.3334 5.66669 26.3334 6.88891V21.3334C26.3334 22.5556 25.3334 23.5556 24.1112 23.5556H4.11117C2.88895 23.5556 1.88895 22.5556 1.88895 21.3334V6.88891C1.88895 5.66669 2.88895 4.66669 4.11117 4.66669ZM4.11117 6.88891V21.3334H13.0001V6.88891H4.11117ZM24.1112 21.3334H15.2223V6.88891H24.1112V21.3334ZM23.0001 10.7778H16.3334V12.4445H23.0001V10.7778ZM16.3334 13.5556H23.0001V15.2222H16.3334V13.5556ZM23.0001 16.3334H16.3334V18H23.0001V16.3334Z" fill="#F8B76B"/>
</svg>
