<svg width="28" height="28" viewBox="0 0 28 28" fill="none" xmlns="http://www.w3.org/2000/svg">
<path fill-rule="evenodd" clip-rule="evenodd" d="M4.11117 4.66626H24.1112C25.3334 4.66626 26.3334 5.66626 26.3334 6.88848V21.3329C26.3334 22.5551 25.3334 23.5551 24.1112 23.5551H4.11117C2.88895 23.5551 1.88895 22.5551 1.88895 21.3329V6.88848C1.88895 5.66626 2.88895 4.66626 4.11117 4.66626ZM4.11117 6.88848V21.3329H13.0001V6.88848H4.11117ZM24.1112 21.3329H15.2223V6.88848H24.1112V21.3329ZM23.0001 10.7774H16.3334V12.444H23.0001V10.7774ZM16.3334 13.5551H23.0001V15.2218H16.3334V13.5551ZM23.0001 16.3329H16.3334V17.9996H23.0001V16.3329Z" fill="white"/>
</svg>
